<svg width="48" height="48" viewBox="0 0 48 48" fill="none" xmlns="http://www.w3.org/2000/svg">
<path d="M24 0C10.746 0 0 10.746 0 24C0 37.254 10.746 48 24 48C37.254 48 48 37.254 48 24C48 10.746 37.254 0 24 0ZM29.574 8C29.934 11.274 27.008 14.69 23.962 14.452C23.586 11.592 26.276 8.134 29.574 8ZM29.174 35.962C27.298 35.998 26.698 34.85 24.552 34.85C22.41 34.85 21.74 35.928 19.966 35.998C16.966 36.112 12.334 29.198 12.334 23.17C12.334 17.632 16.194 14.886 19.564 14.836C21.37 14.804 23.08 16.054 24.184 16.054C25.292 16.054 27.368 14.55 29.548 14.77C30.458 14.808 33.02 15.138 34.67 17.544C30.3 20.392 30.98 26.35 35.668 28.54C34.75 31.202 32.004 35.912 29.174 35.962Z" fill="white"/>
</svg>
