<svg width="60" height="60" viewBox="0 0 60 60" fill="none" xmlns="http://www.w3.org/2000/svg">
<g clip-path="url(#clip0_3179_106888)">
<path fill-rule="evenodd" clip-rule="evenodd" d="M0.000904336 28.5549L60 28.555L60 31.4512L0.000904083 31.4512L0.000904336 28.5549Z" fill="white"/>
<path d="M17.9978 51C18.0778 43.2526 13.4979 35.8262 6.8869 32.9348C4.71137 31.9525 2.3603 31.4505 -0.00189038 31.4505L-0.00189019 29.2784C2.61585 29.0974 5.30025 29.4763 7.84466 30.4272C13.0424 32.3459 17.4556 36.6323 19.8645 42.0628C21.1 44.8166 21.8311 47.8769 22 51L18.0001 51L17.9978 51Z" fill="white"/>
<path d="M0.000324443 28.5477C4.73137 28.567 9.39574 26.4648 12.729 22.8228C16.0845 19.205 18.0178 14.1366 18.0001 8.9982L22 8.99821C21.8333 12.1213 21.1 15.1816 19.8645 17.9354C17.4578 23.3659 13.0424 27.6523 7.84465 29.571C5.30025 30.5219 2.61584 30.9008 -0.00189972 30.7198L-0.00189953 28.5477L0.000324443 28.5477Z" fill="white"/>
</g>
<defs>
<clipPath id="clip0_3179_106888">
<rect width="60" height="60" fill="white"/>
</clipPath>
</defs>
</svg>
