<svg width="24" height="24" viewBox="0 0 24 24" fill="none" xmlns="http://www.w3.org/2000/svg">
<g clip-path="url(#clip0_2917_12957)">
<path d="M24 0H0V24H24V0Z" fill="none"/>
<path d="M19.6595 9.74458C21.8181 9.74458 23.5744 7.98827 23.5744 5.82969C23.5744 3.67111 21.8181 1.91479 19.6595 1.91479C17.5009 1.91479 15.7446 3.67111 15.7446 5.82969C15.7446 7.98827 17.5009 9.74458 19.6595 9.74458ZM19.6595 2.93607C21.255 2.93607 22.5531 4.23423 22.5531 5.82969C22.5531 7.42515 21.255 8.72331 19.6595 8.72331C18.0641 8.72331 16.7659 7.42515 16.7659 5.82969C16.7659 4.23423 18.0641 2.93607 19.6595 2.93607Z" fill="black"/>
<path d="M4.34043 9.74458C6.49901 9.74458 8.25532 7.98827 8.25532 5.82969C8.25532 3.67111 6.49901 1.91479 4.34043 1.91479C2.18185 1.91479 0.425537 3.67111 0.425537 5.82969C0.425537 7.98827 2.18185 9.74458 4.34043 9.74458ZM4.34043 2.93607C5.93589 2.93607 7.23405 4.23423 7.23405 5.82969C7.23405 7.42515 5.93589 8.72331 4.34043 8.72331C2.74497 8.72331 1.44681 7.42515 1.44681 5.82969C1.44681 4.23423 2.74497 2.93607 4.34043 2.93607Z" fill="black"/>
<path d="M22.7189 10.8511H22.2125C22.1776 10.8511 19.7943 10.8511 18.2965 10.8511H16.5907L16.5955 11.3665C16.6065 12.5745 16.1271 13.7251 15.2457 14.6068C14.364 15.4885 13.2128 15.9682 12.0048 15.9569H12H11.9952C10.7864 15.9674 9.63576 15.4885 8.75434 14.6068C7.87292 13.7254 7.39349 12.5745 7.40427 11.3663L7.40881 10.8511H1.27661V11.362C1.27718 12.7637 1.55888 14.1819 2.09108 15.4636C3.66668 19.3759 7.68654 22.0854 11.8953 22.0851C11.9299 22.0851 11.9657 22.0851 12.0006 22.0845C13.4292 22.0953 14.8264 21.8156 16.1526 21.2516C17.4298 20.7084 18.581 19.9294 19.5742 18.9362C20.5677 17.943 21.3467 16.7918 21.8899 15.5146C22.4548 14.1867 22.7351 12.7881 22.7231 11.3575L22.7189 10.8511ZM20.9501 15.1149C20.4585 16.2709 19.7524 17.3135 18.8519 18.2139C17.9515 19.1143 16.909 19.8202 15.7526 20.3118C14.5546 20.8213 13.2925 21.0732 12.004 21.0633H11.9989H11.9938C11.9617 21.0636 11.9297 21.0638 11.8976 21.0638C10.0743 21.0638 8.20172 20.4823 6.61448 19.4216C5.00002 18.3424 3.72966 16.8006 3.03718 15.0797L3.03491 15.0743C2.6176 14.0704 2.37051 12.9731 2.3115 11.8726H6.40257C6.45165 12.4434 6.59122 13.0014 6.81931 13.5379C7.10385 14.2065 7.51179 14.8094 8.03207 15.3297C8.55236 15.8499 9.15519 16.2579 9.82413 16.5424C10.5194 16.838 11.2508 16.9844 11.9997 16.9787C12.7484 16.9844 13.4803 16.8383 14.1756 16.5424C14.8446 16.2579 15.4474 15.8497 15.9677 15.3297C16.488 14.8094 16.8959 14.2065 17.1804 13.5379C17.4085 13.0017 17.5481 12.4437 17.5972 11.8732H21.6925C21.6417 12.9864 21.3929 14.0749 20.9501 15.1158V15.1149Z" fill="black"/>
</g>
<defs>
<clipPath id="clip0_2917_12957">
<rect width="24" height="24" fill="none"/>
</clipPath>
</defs>
</svg>
