<svg width="270" height="270" viewBox="0 0 270 270" fill="none" xmlns="http://www.w3.org/2000/svg">
<g clip-path="url(#clip0_2742_30083)">
<path d="M270 0H0V270H270V0Z" fill="#101010"/>
<path d="M75.0008 127.5C74.7041 160.217 102.291 187.79 134.997 187.493C167.701 187.797 195.297 160.207 194.994 127.5H254.994C255.544 192.973 200.464 248.047 134.994 247.493C87.4641 248.027 41.8575 217.507 24.1175 173.423C18.0875 158.917 15.0008 143.21 14.9941 127.5H74.9941H75.0008Z" fill="#00B496"/>
<path d="M45 102.5C67.0914 102.5 85 84.5914 85 62.5C85 40.4086 67.0914 22.5 45 22.5C22.9086 22.5 5 40.4086 5 62.5C5 84.5914 22.9086 102.5 45 102.5Z" fill="#E1F000"/>
<path d="M225 102.5C247.091 102.5 265 84.5914 265 62.5C265 40.4086 247.091 22.5 225 22.5C202.909 22.5 185 40.4086 185 62.5C185 84.5914 202.909 102.5 225 102.5Z" fill="#E1F000"/>
</g>
<defs>
<clipPath id="clip0_2742_30083">
<rect width="270" height="270" fill="white"/>
</clipPath>
</defs>
</svg>
