<svg width="104" height="90" viewBox="0 0 104 90" fill="none" xmlns="http://www.w3.org/2000/svg">
<path d="M28 42C27.8813 55.0867 38.916 66.116 51.9987 65.9973C65.08 66.1187 76.1187 55.0827 75.9973 42H99.9973C100.217 68.1893 78.1853 90.2187 51.9973 89.9973C32.9853 90.2107 14.7427 78.0027 7.64665 60.3693C5.23465 54.5667 3.99998 48.284 3.99731 42H27.9973H28Z" fill="#00B496"/>
<path d="M16 32C24.8366 32 32 24.8366 32 16C32 7.16344 24.8366 0 16 0C7.16344 0 0 7.16344 0 16C0 24.8366 7.16344 32 16 32Z" fill="#E1F000"/>
<path d="M88 32C96.8366 32 104 24.8366 104 16C104 7.16344 96.8366 0 88 0C79.1634 0 72 7.16344 72 16C72 24.8366 79.1634 32 88 32Z" fill="#E1F000"/>
</svg>
