<svg width="270" height="270" viewBox="0 0 270 270" fill="none" xmlns="http://www.w3.org/2000/svg">
<g clip-path="url(#clip0_2742_30343)">
<path d="M270 0H0V270H270V0Z" fill="#101010"/>
<path d="M135 255C201.274 255 255 201.274 255 135C255 68.7258 201.274 15 135 15C68.7258 15 15 68.7258 15 135C15 201.274 68.7258 255 135 255Z" fill="#B487FF"/>
<path d="M90.5539 180.34C86.7139 180.34 82.8772 178.877 79.9472 175.947C74.0905 170.09 74.0905 160.59 79.9472 154.733L100.024 134.657L80.6305 115.263C74.7739 109.407 74.7739 99.9066 80.6305 94.05C86.4872 88.1933 95.9872 88.1933 101.844 94.05L142.451 134.657L101.161 175.947C98.2305 178.877 94.3939 180.34 90.5539 180.34Z" fill="#E1F000"/>
<path d="M160.554 180.34C156.714 180.34 152.877 178.877 149.947 175.947C144.091 170.09 144.091 160.59 149.947 154.733L170.024 134.657L150.631 115.263C144.774 109.407 144.774 99.9066 150.631 94.05C156.487 88.1933 165.987 88.1933 171.844 94.05L212.451 134.657L171.161 175.947C168.231 178.877 164.394 180.34 160.554 180.34Z" fill="#E1F000"/>
</g>
<defs>
<clipPath id="clip0_2742_30343">
<rect width="270" height="270" fill="white"/>
</clipPath>
</defs>
</svg>
