<svg width="24" height="24" viewBox="0 0 24 24" fill="none" xmlns="http://www.w3.org/2000/svg">
<g clip-path="url(#clip0_2917_12956)">
<path d="M24 0H0V24H24V0Z" fill="none"/>
<path d="M22.7234 2.12769H7.23406V10.6488C7.12143 10.642 7.00796 10.6383 6.89363 10.6383C3.79633 10.6383 1.27661 13.158 1.27661 16.2553C1.27661 19.3526 3.79633 21.8724 6.89363 21.8724C9.15661 21.8724 11.1112 20.5268 12 18.5941C12.8888 20.5268 14.8434 21.8724 17.1064 21.8724C20.2037 21.8724 22.7234 19.3526 22.7234 16.2553C22.7234 16.1631 22.7211 16.0712 22.7166 15.9802C22.7206 15.9456 22.7234 15.9104 22.7234 15.8746V2.12769ZM8.25533 3.87123L12.3404 7.95634V13.2863C12.2142 13.4883 12.1002 13.6987 12 13.9166C11.2956 12.3847 9.92172 11.2222 8.25533 10.8057V3.87123ZM13.3617 8.97761L15.3155 10.9314C14.5861 11.1773 13.9231 11.5697 13.3617 12.0726V8.97761ZM6.89363 20.8511C4.35945 20.8511 2.29789 18.7895 2.29789 16.2553C2.29789 13.7212 4.35945 11.6596 6.89363 11.6596C9.42782 11.6596 11.4894 13.7212 11.4894 16.2553C11.4894 18.7895 9.42782 20.8511 6.89363 20.8511ZM17.1064 20.8511C14.5722 20.8511 12.5107 18.7895 12.5107 16.2553C12.5107 13.7212 14.5722 11.6596 17.1064 11.6596C19.6406 11.6596 21.7021 13.7212 21.7021 16.2553C21.7021 18.7895 19.6406 20.8511 17.1064 20.8511ZM17.1064 10.6383C16.9013 10.6383 16.699 10.6497 16.4996 10.6712L8.9776 3.14896H21.7021V13.0295C20.6848 11.5844 19.004 10.6383 17.1064 10.6383Z" fill="black"/>
</g>
<defs>
<clipPath id="clip0_2917_12956">
<rect width="24" height="24" fill="none"/>
</clipPath>
</defs>
</svg>
