<svg width="16" height="16" viewBox="0 0 16 16" fill="none" xmlns="http://www.w3.org/2000/svg">
<path d="M14.3151 2.43509C13.9388 2.05752 13.4917 1.75794 12.9994 1.55353C12.5071 1.34912 11.9794 1.2439 11.4463 1.2439C10.9133 1.2439 10.3855 1.34912 9.8932 1.55353C9.40092 1.75794 8.95382 2.05752 8.57757 2.43509L8.00006 3.02009L7.42256 2.43509C7.04631 2.05752 6.59921 1.75794 6.10693 1.55353C5.61465 1.34912 5.08685 1.2439 4.55381 1.2439C4.02078 1.2439 3.49298 1.34912 3.0007 1.55353C2.50841 1.75794 2.06132 2.05752 1.68506 2.43509C0.0950648 4.02509 -0.00243533 6.71009 2.00006 8.75009L8.00006 14.7501L14.0001 8.75009C16.0026 6.71009 15.9051 4.02509 14.3151 2.43509Z" fill="#0E0E0E" stroke="white" stroke-linecap="round" stroke-linejoin="round"/>
</svg>
