<svg width="24" height="24" viewBox="0 0 24 24" fill="none" xmlns="http://www.w3.org/2000/svg">
<g clip-path="url(#clip0_2917_12954)">
<path d="M24 0H0V24H24V0Z" fill="none"/>
<path d="M22.7234 12.5106V11.7883L12 1.06494L1.27661 11.7883V22.7234H15.4043C17.3592 22.7234 19.1972 21.962 20.5796 20.5796C21.962 19.1971 22.7234 17.3591 22.7234 15.4042V12.5106ZM6.38299 21.7021H2.29789V12.5106H6.38299V21.7021ZM6.38299 11.4893H3.02016L12 2.50948L20.9799 11.4893H6.38299ZM21.7021 15.4042C21.7021 17.0865 21.0471 18.6681 19.8576 19.8576C18.6681 21.0471 17.0865 21.7021 15.4043 21.7021H7.40427V12.5106H21.7021V15.4042Z" fill="black"/>
</g>
<defs>
<clipPath id="clip0_2917_12954">
<rect width="24" height="24" fill="none"/>
</clipPath>
</defs>
</svg>