<svg width="18" height="18" viewBox="0 0 18 18" fill="none" xmlns="http://www.w3.org/2000/svg">
<path d="M5.27259 0.0629441C4.31499 0.108124 3.66105 0.260945 3.08937 0.485586C2.4977 0.716166 1.99622 1.02559 1.49726 1.52635C0.998298 2.02711 0.691037 2.52895 0.462076 3.12151C0.240495 3.69446 0.0903749 4.34894 0.0480748 5.30708C0.00577462 6.26523 -0.00358542 6.57321 0.0010946 9.01725C0.00577461 11.4613 0.0165747 11.7677 0.0630148 12.7278C0.108735 13.6852 0.261016 14.339 0.485656 14.9108C0.716597 15.5025 1.02566 16.0038 1.5266 16.5029C2.02754 17.0021 2.52902 17.3086 3.12303 17.5379C3.69543 17.7592 4.35009 17.91 5.30805 17.9519C6.26602 17.9939 6.57436 18.0036 9.01769 17.9989C11.461 17.9942 11.7686 17.9834 12.7286 17.9379C13.6885 17.8924 14.3389 17.739 14.9109 17.5154C15.5026 17.284 16.0042 16.9754 16.503 16.4743C17.0018 15.9732 17.3089 15.471 17.5377 14.8781C17.7594 14.3057 17.9101 13.651 17.9517 12.6938C17.9936 11.7331 18.0035 11.4264 17.9988 8.9827C17.9941 6.53901 17.9832 6.23265 17.9376 5.27288C17.8921 4.31312 17.7396 3.66134 17.5152 3.08911C17.2839 2.49745 16.9752 1.99651 16.4744 1.49701C15.9736 0.997507 15.4711 0.690606 14.8783 0.462365C14.3056 0.240785 13.6513 0.0897642 12.6933 0.048364C11.7353 0.00696388 11.427 -0.00365616 8.98277 0.00102385C6.53854 0.00570387 6.23254 0.0161439 5.27259 0.0629441ZM5.37771 16.3328C4.50021 16.2947 4.02375 16.1489 3.70623 16.0268C3.28575 15.8648 2.98623 15.669 2.66978 15.3556C2.35334 15.0422 2.15894 14.7416 1.99478 14.3221C1.87148 14.0045 1.72298 13.5286 1.68194 12.6511C1.6373 11.7027 1.62794 11.4179 1.62272 9.01509C1.6175 6.61227 1.62668 6.32787 1.66826 5.37908C1.7057 4.5023 1.8524 4.0253 1.97426 3.70796C2.13626 3.28694 2.33138 2.98795 2.64548 2.67169C2.95958 2.35543 3.25929 2.16067 3.67923 1.99651C3.99639 1.87267 4.47231 1.72543 5.34945 1.68367C6.2986 1.63867 6.583 1.62967 8.98547 1.62445C11.3879 1.61923 11.6731 1.62823 12.6226 1.66999C13.4993 1.70815 13.9765 1.85341 14.2935 1.97599C14.7142 2.13799 15.0135 2.33257 15.3298 2.64721C15.646 2.96185 15.841 3.26048 16.0051 3.68132C16.1292 3.99758 16.2764 4.47332 16.3178 5.351C16.363 6.30015 16.3732 6.58473 16.3776 8.98701C16.3819 11.3893 16.3734 11.6746 16.3318 12.623C16.2935 13.5005 16.1481 13.9772 16.0258 14.2951C15.8638 14.7154 15.6685 15.0151 15.3542 15.3311C15.04 15.6472 14.7406 15.842 14.3205 16.0061C14.0037 16.1298 13.5272 16.2774 12.6508 16.3192C11.7017 16.3638 11.4173 16.3732 9.01391 16.3784C6.61054 16.3836 6.32704 16.3739 5.37789 16.3328M12.7147 4.18982C12.7151 4.40344 12.7788 4.61215 12.8978 4.78957C13.0167 4.96698 13.1857 5.10513 13.3832 5.18653C13.5807 5.26793 13.7979 5.28894 14.0073 5.24689C14.2168 5.20484 14.409 5.10162 14.5598 4.95029C14.7106 4.79896 14.8131 4.60632 14.8544 4.39673C14.8956 4.18714 14.8738 3.97001 14.7917 3.77281C14.7096 3.5756 14.5708 3.40719 14.393 3.28885C14.2151 3.17052 14.0062 3.10759 13.7926 3.10801C13.5062 3.10859 13.2318 3.22287 13.0296 3.42574C12.8275 3.62861 12.7142 3.90345 12.7147 4.18982ZM4.37889 9.00898C4.38393 11.5614 6.45682 13.6258 9.00869 13.621C11.5606 13.6161 13.6264 11.5434 13.6216 8.99098C13.6167 6.43857 11.5433 4.3736 8.99105 4.37864C6.43882 4.38368 4.37403 6.45693 4.37889 9.00898ZM5.99998 9.00574C5.9988 8.41238 6.17361 7.832 6.50228 7.33799C6.83096 6.84398 7.29874 6.45853 7.84648 6.23037C8.39422 6.00222 8.99731 5.94162 9.5795 6.05622C10.1617 6.17083 10.6968 6.4555 11.1172 6.87423C11.5376 7.29297 11.8244 7.82696 11.9413 8.40869C12.0582 8.99042 12 9.59375 11.774 10.1424C11.548 10.691 11.1644 11.1603 10.6717 11.491C10.179 11.8216 9.59934 11.9987 9.00599 11.9999C8.612 12.0007 8.22171 11.9239 7.8574 11.7739C7.49309 11.6238 7.16191 11.4035 6.88277 11.1255C6.60363 10.8474 6.38199 10.5171 6.23052 10.1534C6.07905 9.78971 6.00071 9.39972 5.99998 9.00574Z" fill="white"/>
</svg>
