<svg width="30" height="30" viewBox="0 0 30 30" fill="none" xmlns="http://www.w3.org/2000/svg">
<path d="M14.9979 16.2015C15.6606 16.2015 16.1979 15.6643 16.1979 15.0015C16.1979 14.3388 15.6606 13.8015 14.9979 13.8015C14.3351 13.8015 13.7979 14.3388 13.7979 15.0015C13.7979 15.6643 14.3351 16.2015 14.9979 16.2015Z" fill="black" stroke="black" stroke-linecap="round" stroke-linejoin="round"/>
<path d="M23.3978 16.2015C24.0605 16.2015 24.5978 15.6643 24.5978 15.0015C24.5978 14.3388 24.0605 13.8015 23.3978 13.8015C22.735 13.8015 22.1978 14.3388 22.1978 15.0015C22.1978 15.6643 22.735 16.2015 23.3978 16.2015Z" fill="black" stroke="black" stroke-linecap="round" stroke-linejoin="round"/>
<path d="M6.59746 16.2015C7.2602 16.2015 7.79746 15.6643 7.79746 15.0015C7.79746 14.3388 7.2602 13.8015 6.59746 13.8015C5.93472 13.8015 5.39746 14.3388 5.39746 15.0015C5.39746 15.6643 5.93472 16.2015 6.59746 16.2015Z" fill="black" stroke="black" stroke-linecap="round" stroke-linejoin="round"/>
</svg>
