<svg width="24" height="24" viewBox="0 0 24 24" fill="none" xmlns="http://www.w3.org/2000/svg">
<g clip-path="url(#clip0_2917_12960)">
<path d="M24 0H0V24H24V0Z" fill="none"/>
<path d="M23.1669 17.617L19.5927 12.2556C19.6937 11.7532 19.7447 11.2389 19.7447 10.7234C19.7447 8.65477 18.9391 6.7098 17.4764 5.24711C16.7447 4.51548 15.8923 3.94867 14.9643 3.56455C14.6199 2.24966 13.4216 1.27661 12.0001 1.27661C10.5785 1.27661 9.3802 2.24966 9.03581 3.56455C8.10786 3.94867 7.25538 4.51548 6.52375 5.24711C5.06105 6.7098 4.25538 8.65477 4.25538 10.7234C4.25538 11.2389 4.30644 11.7532 4.40744 12.2556L0.833252 17.617H6.40659C6.66559 20.4758 9.07495 22.7234 12.0001 22.7234C14.9252 22.7234 17.3348 20.4758 17.5935 17.617H23.1669ZM12.0001 2.29789C13.1263 2.29789 14.0426 3.2142 14.0426 4.34044C14.0426 5.46668 13.1263 6.38299 12.0001 6.38299C10.8738 6.38299 9.95751 5.46668 9.95751 4.34044C9.95751 3.2142 10.8738 2.29789 12.0001 2.29789ZM5.49935 12.459L5.44971 12.2443C5.33481 11.7484 5.27666 11.2366 5.27666 10.7237C5.27666 8.92768 5.97595 7.23945 7.24602 5.96966C7.75637 5.45931 8.33481 5.04143 8.96034 4.7237C9.14928 6.23292 10.4406 7.40455 12.0003 7.40455C13.5601 7.40455 14.8511 6.23292 15.0403 4.7237C15.6659 5.04143 16.244 5.45902 16.7547 5.96966C18.0245 7.23945 18.724 8.92796 18.724 10.7237C18.724 11.2369 18.6659 11.7484 18.551 12.2443L18.5013 12.459L21.2591 16.5958H2.74134L5.49907 12.459H5.49935ZM12.0001 21.7021C9.63864 21.7021 7.68744 19.9118 7.4324 17.617H16.5674C16.3127 19.9118 14.3615 21.7021 11.9998 21.7021H12.0001Z" fill="black"/>
</g>
<defs>
<clipPath id="clip0_2917_12960">
<rect width="24" height="24" fill="none"/>
</clipPath>
</defs>
</svg>
