<svg width="270" height="270" viewBox="0 0 270 270" fill="none" xmlns="http://www.w3.org/2000/svg">
<g clip-path="url(#clip0_2742_30040)">
<path d="M270 0H0V270H270V0Z" fill="none"/>
<path d="M255 195H15L135 15L255 195Z" fill="#2D78FF"/>
<path d="M135 205C181.944 205 220 166.944 220 120C220 73.0558 181.944 35 135 35C88.0558 35 50 73.0558 50 120C50 166.944 88.0558 205 135 205Z" fill="#2D78FF"/>
<path d="M75 195C75 228.137 101.863 255 135 255C168.137 255 195 228.137 195 195H75Z" fill="#FF7178"/>
<path d="M135 75C151.569 75 165 61.5685 165 45C165 28.4315 151.569 15 135 15C118.431 15 105 28.4315 105 45C105 61.5685 118.431 75 135 75Z" fill="#E1F000"/>
</g>
<defs>
<clipPath id="clip0_2742_30040">
<rect width="270" height="270" fill="white"/>
</clipPath>
</defs>
</svg>
