<svg width="24" height="24" viewBox="0 0 24 24" fill="none" xmlns="http://www.w3.org/2000/svg">
<g clip-path="url(#clip0_2917_12955)">
<path d="M24 0H0V24H24V0Z" fill="none"/>
<path d="M22.4565 4.25155C20.4017 2.1968 17.0587 2.1968 15.004 4.25155L12 7.25553L8.99603 4.25155C8.00085 3.25638 6.67745 2.70801 5.26979 2.70801C3.86213 2.70801 2.53901 3.25609 1.54355 4.25155C0.548085 5.24673 0 6.57014 0 7.9778C0 9.38545 0.548085 10.7089 1.54355 11.704L10.5172 20.6777C10.9132 21.0737 11.4397 21.2918 12 21.2918C12.5603 21.2918 13.0868 21.0737 13.4828 20.6777C13.8789 20.2816 14.097 19.7551 14.097 19.1948C14.097 19.1435 14.0953 19.0927 14.0916 19.0419C14.1421 19.0456 14.1929 19.0473 14.2434 19.0473C14.7804 19.0473 15.3174 18.8428 15.7262 18.434C16.1223 18.0379 16.3404 17.5114 16.3404 16.9511C16.3404 16.9003 16.3387 16.8496 16.335 16.7994C16.3852 16.803 16.436 16.8047 16.4868 16.8047C17.0468 16.8047 17.5736 16.5866 17.9696 16.1906L22.4565 11.7038C23.4516 10.7086 24 9.38517 24 7.97751C24 6.56985 23.4519 5.24673 22.4565 4.25127V4.25155ZM15.7262 15.4686L15.004 16.1908C15.2071 16.394 15.3191 16.664 15.3191 16.9514C15.3191 17.2388 15.2074 17.5089 15.004 17.712C14.8006 17.9151 14.5308 18.0272 14.2434 18.0272C13.956 18.0272 13.686 17.9154 13.4828 17.712L12.7606 18.4342C12.9637 18.6374 13.0757 18.9074 13.0757 19.1948C13.0757 19.4822 12.964 19.7523 12.7606 19.9554C12.5572 20.1585 12.2874 20.2706 12 20.2706C11.7126 20.2706 11.4426 20.1588 11.2394 19.9554L2.26553 10.9818C1.46298 10.1792 1.02128 9.11255 1.02128 7.9778C1.02128 6.84304 1.46326 5.77609 2.26553 4.97382C3.06808 4.17127 4.13475 3.72957 5.2695 3.72957C6.40425 3.72957 7.47121 4.17155 8.27348 4.97382L11.2777 7.97808L10.6809 8.57496C9.48624 9.76957 9.48624 11.7131 10.6809 12.9077C11.2596 13.4864 12.0289 13.805 12.8474 13.805C13.6658 13.805 14.4352 13.4864 15.0139 12.9077L15.6108 12.3108L17.2474 13.9474C17.6667 14.367 17.6667 15.0493 17.2474 15.4689C17.0443 15.672 16.7742 15.784 16.4868 15.784C16.1994 15.784 15.9294 15.6723 15.7262 15.4689V15.4686ZM21.7345 10.9818L18.5197 14.1965C18.4306 13.8405 18.2477 13.5032 17.9696 13.2255L15.9716 11.2274L15.6105 10.8663L14.2913 12.1855C13.9055 12.5713 13.3926 12.7838 12.8471 12.7838C12.3016 12.7838 11.7887 12.5713 11.4028 12.1855C10.6065 11.3891 10.6065 10.0933 11.4028 9.29694L15.1243 5.57553L15.7262 4.97354C16.5288 4.17099 17.5955 3.72928 18.7302 3.72928C19.865 3.72928 20.9319 4.17127 21.7342 4.97354C22.5367 5.77609 22.9784 6.84276 22.9784 7.97751C22.9784 9.11226 22.5365 10.1792 21.7342 10.9815L21.7345 10.9818Z" fill="black"/>
</g>
<defs>
<clipPath id="clip0_2917_12955">
<rect width="24" height="24" fill="none"/>
</clipPath>
</defs>
</svg>
