<svg width="270" height="270" viewBox="0 0 270 270" fill="none" xmlns="http://www.w3.org/2000/svg">
<g clip-path="url(#clip0_2697_106902)">
<path d="M270 0H0V270H270V0Z" fill="none"/>
<path d="M225 15H45C28.4315 15 15 28.4315 15 45V225C15 241.569 28.4315 255 45 255H225C241.569 255 255 241.569 255 225V45C255 28.4315 241.569 15 225 15Z" fill="#E4DBC0"/>
<path d="M225 75H45C28.4315 75 15 88.4315 15 105V225C15 241.569 28.4315 255 45 255H225C241.569 255 255 241.569 255 225V105C255 88.4315 241.569 75 225 75Z" fill="#E4DBC0"/>
<path d="M225 15H45C28.4315 15 15 28.4315 15 45C15 61.5685 28.4315 75 45 75H225C241.569 75 255 61.5685 255 45C255 28.4315 241.569 15 225 15Z" fill="#00B496"/>
<path d="M94.9801 15.0067C94.9801 6.71871 88.2614 0 79.9735 0C71.6855 0 64.9668 6.71871 64.9668 15.0067V39.9933C64.9668 48.2813 71.6855 55 79.9735 55C88.2614 55 94.9801 48.2813 94.9801 39.9933V15.0067Z" fill="#B487FF"/>
<path d="M204.966 15.0067C204.966 6.71871 198.248 0 189.96 0C181.672 0 174.953 6.71871 174.953 15.0067V39.9933C174.953 48.2813 181.672 55 189.96 55C198.248 55 204.966 48.2813 204.966 39.9933V15.0067Z" fill="#B487FF"/>
<path d="M195 195H75C58.43 195 45 181.57 45 165C45 148.43 58.43 135 75 135H195C211.57 135 225 148.43 225 165C225 181.57 211.57 195 195 195Z" fill="#B487FF"/>
<path d="M75 195C91.5685 195 105 181.569 105 165C105 148.431 91.5685 135 75 135C58.4315 135 45 148.431 45 165C45 181.569 58.4315 195 75 195Z" fill="#00B496"/>
</g>
<defs>
<clipPath id="clip0_2697_106902">
<rect width="270" height="270" fill="white"/>
</clipPath>
</defs>
</svg>
