<svg width="270" height="270" viewBox="0 0 270 270" fill="none" xmlns="http://www.w3.org/2000/svg">
<g clip-path="url(#clip0_2742_30358)">
<path d="M270 0H0V270H270V0Z" fill="none"/>
<path d="M135 255C201.274 255 255 201.274 255 135C255 68.7258 201.274 15 135 15C68.7258 15 15 68.7258 15 135C15 201.274 68.7258 255 135 255Z" fill="#E1F000"/>
<path d="M95 200C86.7167 200 80 193.283 80 185V80H155C179.813 80 200 100.187 200 125C200 149.813 179.813 170 155 170H140C131.717 170 125 163.283 125 155C125 146.717 131.717 140 140 140H155C163.27 140 170 133.27 170 125C170 116.73 163.27 110 155 110H110V185C110 193.283 103.283 200 95 200Z" fill="#B487FF"/>
</g>
<defs>
<clipPath id="clip0_2742_30358">
<rect width="270" height="270" fill="white"/>
</clipPath>
</defs>
</svg>
