<svg width="270" height="270" viewBox="0 0 270 270" fill="none" xmlns="http://www.w3.org/2000/svg">
<g clip-path="url(#clip0_2742_30024)">
<path d="M270 0H0V270H270V0Z" fill="#101010"/>
<path d="M145 25H85V185H145V25Z" fill="#2D78FF"/>
<path fill-rule="evenodd" clip-rule="evenodd" d="M85 25L215 155V185H255V25H215H85Z" fill="#E4DBC0"/>
<path d="M75 245C108.137 245 135 218.137 135 185C135 151.863 108.137 125 75 125C41.8629 125 15 151.863 15 185C15 218.137 41.8629 245 75 245Z" fill="#FF692D"/>
<path d="M195 245C228.137 245 255 218.137 255 185C255 151.863 228.137 125 195 125C161.863 125 135 151.863 135 185C135 218.137 161.863 245 195 245Z" fill="#FF692D"/>
</g>
<defs>
<clipPath id="clip0_2742_30024">
<rect width="270" height="270" fill="white"/>
</clipPath>
</defs>
</svg>
