<?xml version="1.0" encoding="iso-8859-1"?>
<!-- Generator: Adobe Illustrator 16.0.3, SVG Export Plug-In . SVG Version: 6.00 Build 0)  -->
<!DOCTYPE svg PUBLIC "-//W3C//DTD SVG 1.1//EN" "http://www.w3.org/Graphics/SVG/1.1/DTD/svg11.dtd">
<svg version="1.1" id="&#x30EC;&#x30A4;&#x30E4;&#x30FC;_1"
	 xmlns="http://www.w3.org/2000/svg" xmlns:xlink="http://www.w3.org/1999/xlink" x="0px" y="0px" width="188.565px"
	 height="108.652px" viewBox="0 0 188.565 108.652" style="enable-background:new 0 0 188.565 108.652;" xml:space="preserve">
<polygon style="fill:#000000;" points="94.288,0 61.861,32.427 94.288,64.854 97.716,61.424 80.287,43.995 82.643,41.638
	88.438,47.424 90.149,45.706 111.618,24.237 119.84,32.443 96.648,55.634 100.075,59.067 126.702,32.44 115.049,20.807
	111.619,17.375 88.434,40.564 86.072,38.208 109.284,14.996 105.855,11.567 82.642,34.783 80.292,32.438 103.439,9.151
	100.01,5.721 73.432,32.441 79.211,38.212 76.858,40.566 68.72,32.427 97.716,3.429 "/>
<polygon style="fill:#000000;" points="161.043,78.067 155.698,78.067 155.698,89.099 161.043,80.306 "/>
<path style="fill:#000000;" d="M155.361,89.653h-14.937V78.068h-5.346v0.751c-1.989-0.959-4.506-1.458-7.488-1.445
	c-4.509,0.021-9.577,1.438-11.749,5.082c-2.282-2.847-5.754-4.388-10.255-4.388h-7.404h-5.346v21.233L75.466,78.068h-2.742h-2.52
	H56.858l-0.717,1.178l-7.712,12.688v16.028h21.775h2.826h2.52V86.714l17.487,21.248h5.146h7.827c3.98,0,7.244-1.506,9.502-4.165
	c2.195,3.246,6.242,4.88,12.02,4.854c2.993-0.015,5.534-0.532,7.548-1.489v0.8h5.346V94.767h11.827L155.361,89.653z M70.204,102.847
	H53.773v-7.772h11.461v-5.117H53.773v-6.776h16.431V102.847z M105.472,102.847h-7.089V83.181h7.089c5.474,0,7.915,3.033,7.915,9.834
	C113.387,99.539,110.724,102.847,105.472,102.847 M127.508,103.488c-5.629,0.024-8.152-1.644-8.546-5.951l-0.108-2.036h-0.041
	c0.084-0.754,0.139-1.53,0.145-2.338c1.988,1.016,4.457,1.561,6.904,1.938l0.968,0.15c4.934,0.755,7.958,1.355,7.97,4.058
	C134.812,102.059,132.358,103.464,127.508,103.488 M135.079,91.725c-1.905-0.733-4.012-1.088-5.766-1.377
	c-7.294-1.182-8.974-1.976-8.983-4.245c-0.011-2.241,3.695-3.599,7.284-3.614c6.162-0.028,7.173,2.509,7.364,4.724l0.1,1.151h0.001
	V91.725z"/>
<path style="fill:#000000;" d="M185.205,101.413c-1.805,0-3.274,1.47-3.274,3.275s1.47,3.275,3.274,3.275
	c1.806,0,3.274-1.47,3.274-3.275S187.011,101.413,185.205,101.413"/>
<path style="fill:#000000;" d="M188.564,87.224c0-6.751-4.907-9.156-9.5-9.156h-5.579l-0.716,1.177l-7.713,12.689v16.028h5.346
	V96.455h7.396C184.641,96.455,188.564,93.089,188.564,87.224 M178.105,91.34h-7.703v-8.157h8.278c3.101,0,4.309,1.134,4.309,4.041
	C182.989,89.695,182.158,91.34,178.105,91.34"/>
<polygon style="fill:#000000;" points="155.698,107.962 161.043,107.962 161.043,98.536 155.698,107.329 "/>
<polygon style="fill:#000000;" points="165.058,78.067 146.885,107.963 152.66,107.963 170.831,78.067 "/>
<polygon style="fill:#000000;" points="48.431,78.067 30.259,107.963 36.033,107.963 54.204,78.067 "/>
<path style="fill:#000000;" d="M34.899,95.961l8.614-14.172c-1.591-2.425-4.589-3.722-8.83-3.722H23.028h-2.507H0v29.895h5.345
	V95.075h11.449v-5.117H5.345v-6.776h15.176v24.781h5.345V95.917h7.742C34.078,95.917,34.504,95.933,34.899,95.961 M25.866,83.181
	h9.008c3.865,0,4.386,1.791,4.386,3.542c0,1.899-0.529,4.079-4.654,4.079h-8.74V83.181z"/>
<path style="fill:#000000;" d="M38.991,107.46v0.502h5.346v-6.931c0-0.748-0.027-1.489-0.097-2.206L38.991,107.46z"/>
</svg>
