<svg width="24" height="24" viewBox="0 0 24 24" fill="none" xmlns="http://www.w3.org/2000/svg">
<g clip-path="url(#clip0_2917_12958)">
<path d="M24 0H0V24H24V0Z" fill="white"/>
<path d="M22.7234 17.4219V9.44682C22.7234 7.26441 21.8735 5.21278 20.3305 3.66952C18.7873 2.12626 16.7356 1.27661 14.5532 1.27661H9.44682C7.26441 1.27661 5.21278 2.12654 3.66952 3.66952C2.12626 5.21278 1.27661 7.26441 1.27661 9.44682C1.27661 11.6292 2.12654 13.6809 3.66952 15.2241C5.21278 16.7674 7.26441 17.617 9.44682 17.617H11.4894V23.0389L22.3333 17.617L22.7234 17.4219ZM9.44682 16.5958C7.53732 16.5958 5.74214 15.8522 4.39179 14.5019C3.04143 13.1515 2.29789 11.3563 2.29789 9.44682C2.29789 7.53732 3.04143 5.74214 4.39179 4.39179C5.74214 3.04143 7.53732 2.29789 9.44682 2.29789H14.5532C16.4627 2.29789 18.2579 3.04143 19.6082 4.39179C20.9586 5.74214 21.7021 7.53732 21.7021 9.44682V16.5958H9.44682ZM12.5107 21.3864V17.6168H20.0497L12.5107 21.3864Z" fill="black"/>
</g>
<defs>
<clipPath id="clip0_2917_12958">
<rect width="24" height="24" fill="white"/>
</clipPath>
</defs>
</svg>
