<svg width="24" height="24" viewBox="0 0 24 24" fill="none" xmlns="http://www.w3.org/2000/svg">
<g clip-path="url(#clip0_2917_12959)">
<path d="M24 0H0V24H24V0Z" fill="white"/>
<path d="M22.7234 9.44682V4.34044C22.7234 2.65108 21.349 1.27661 19.6596 1.27661H4.34044C2.65108 1.27661 1.27661 2.65108 1.27661 4.34044V9.44682C1.27661 10.5115 1.82243 11.4508 2.64881 12C1.82243 12.5492 1.27661 13.4885 1.27661 14.5532C1.27661 15.6179 1.82243 16.5572 2.64881 17.1064C1.82243 17.6556 1.27661 18.5949 1.27661 19.6596C1.27661 21.349 2.65108 22.7234 4.34044 22.7234C5.40484 22.7234 6.34441 22.1776 6.89363 21.3512C7.44285 22.1776 8.38243 22.7234 9.44682 22.7234H14.5532C16.2426 22.7234 17.617 21.349 17.617 19.6596C17.617 18.8755 17.3209 18.1594 16.8346 17.617H19.6596C21.349 17.617 22.7234 16.2426 22.7234 14.5532C22.7234 13.4885 22.1776 12.5492 21.3512 12C22.1776 11.4508 22.7234 10.5115 22.7234 9.44682ZM2.29789 14.5532C2.29789 13.427 3.2142 12.5107 4.34044 12.5107C5.46668 12.5107 6.38299 13.427 6.38299 14.5532C6.38299 15.6794 5.46668 16.5958 4.34044 16.5958C3.2142 16.5958 2.29789 15.6794 2.29789 14.5532ZM4.34044 21.7021C3.2142 21.7021 2.29789 20.7858 2.29789 19.6596C2.29789 18.5333 3.2142 17.617 4.34044 17.617C5.46668 17.617 6.38299 18.5333 6.38299 19.6596C6.38299 20.7858 5.46668 21.7021 4.34044 21.7021ZM6.89363 17.968C6.66668 17.6267 6.37335 17.3333 6.03207 17.1064C6.37335 16.8794 6.66668 16.5861 6.89363 16.2448C7.12058 16.5861 7.41392 16.8794 7.75519 17.1064C7.41392 17.3333 7.12058 17.6267 6.89363 17.968ZM14.5532 21.7021H9.44682C8.32058 21.7021 7.40427 20.7858 7.40427 19.6596C7.40427 18.5333 8.32058 17.617 9.44682 17.617H14.5532C15.6794 17.617 16.5958 18.5333 16.5958 19.6596C16.5958 20.7858 15.6794 21.7021 14.5532 21.7021ZM21.7021 14.5532C21.7021 15.6794 20.7858 16.5958 19.6596 16.5958H9.44682C8.32058 16.5958 7.40427 15.6794 7.40427 14.5532C7.40427 13.427 8.32058 12.5107 9.44682 12.5107H19.6596C20.7858 12.5107 21.7021 13.427 21.7021 14.5532ZM21.7021 9.44682C21.7021 10.5731 20.7858 11.4894 19.6596 11.4894H4.34044C3.2142 11.4894 2.29789 10.5731 2.29789 9.44682V4.34044C2.29789 3.2142 3.2142 2.29789 4.34044 2.29789H19.6596C20.7858 2.29789 21.7021 3.2142 21.7021 4.34044V9.44682Z" fill="black"/>
</g>
<defs>
<clipPath id="clip0_2917_12959">
<rect width="24" height="24" fill="white"/>
</clipPath>
</defs>
</svg>
