<svg width="270" height="270" viewBox="0 0 270 270" fill="none" xmlns="http://www.w3.org/2000/svg">
<g clip-path="url(#clip0_2742_30032)">
<path d="M270 0H0V270H270V0Z" fill="none"/>
<path d="M225 15H45C28.4315 15 15 28.4315 15 45V105C15 121.569 28.4315 135 45 135H225C241.569 135 255 121.569 255 105V45C255 28.4315 241.569 15 225 15Z" fill="#E1F000"/>
<path d="M105 255H165C181.569 255 195 241.569 195 225C195 208.431 181.569 195 165 195H105C88.4315 195 75 208.431 75 225C75 241.569 88.4315 255 105 255Z" fill="#00B496"/>
<path d="M105 195L225 195C241.569 195 255 181.569 255 165C255 148.431 241.569 135 225 135L105 135C88.4315 135 75 148.431 75 165C75 181.569 88.4315 195 105 195Z" fill="#FF692D"/>
<path d="M45 255C61.5685 255 75 241.569 75 225C75 208.431 61.5685 195 45 195C28.4315 195 15 208.431 15 225C15 241.569 28.4315 255 45 255Z" fill="#00B496"/>
<path d="M45 195C61.5685 195 75 181.569 75 165C75 148.431 61.5685 135 45 135C28.4315 135 15 148.431 15 165C15 181.569 28.4315 195 45 195Z" fill="#FF692D"/>
</g>
<defs>
<clipPath id="clip0_2742_30032">
<rect width="270" height="270" fill="white"/>
</clipPath>
</defs>
</svg>
