<svg width="270" height="270" viewBox="0 0 270 270" fill="none" xmlns="http://www.w3.org/2000/svg">
<g clip-path="url(#clip0_2742_30114)">
<path d="M270 0H0V270H270V0Z" fill="none"/>
<path d="M253.624 48.1966C231.788 26.3599 196.381 26.3599 174.544 48.1966L121.824 100.917L200.904 179.997L253.624 127.277C275.461 105.44 275.461 70.0333 253.624 48.1966Z" fill="#00B496"/>
<path fill-rule="evenodd" clip-rule="evenodd" d="M95.4603 48.1988C73.6367 26.3751 38.2012 26.3751 16.3775 48.1988C-5.44615 70.0225 -5.44615 105.458 16.3775 127.282L55.9189 166.823L55.9213 166.821L121.819 232.718C129.092 239.992 140.906 239.992 148.179 232.718C155.405 225.493 155.453 213.788 148.324 206.503C155.609 213.632 167.313 213.584 174.539 206.359C181.783 199.114 181.812 187.367 174.627 180.086C181.908 187.271 193.654 187.241 200.898 179.997C208.172 172.723 208.172 160.91 200.898 153.636L134.998 87.7363L134.998 87.7365L95.4603 48.1988Z" fill="#FF7178"/>
<path d="M209.896 97.6941L166.171 141.419C154.464 153.127 135.452 153.127 123.745 141.419C112.038 129.712 112.038 110.7 123.745 98.9928L167.47 55.2677L209.896 97.6941Z" fill="#00B496"/>
</g>
<defs>
<clipPath id="clip0_2742_30114">
<rect width="270" height="270" fill="white"/>
</clipPath>
</defs>
</svg>
