<svg width="270" height="270" viewBox="0 0 270 270" fill="none" xmlns="http://www.w3.org/2000/svg">
<g clip-path="url(#clip0_2742_30349)">
<path d="M270 0H0V270H270V0Z" fill="#101010"/>
<path d="M135 255C201.274 255 255 201.274 255 135C255 68.7258 201.274 15 135 15C68.7258 15 15 68.7258 15 135C15 201.274 68.7258 255 135 255Z" fill="#2D78FF"/>
<path d="M125 175.08V85.0801L185 145.08H95C78.43 145.08 65 131.65 65 115.08C65 98.5101 78.43 85.0801 95 85.0801H185V175.08C183.427 214.853 126.583 214.883 125 175.08Z" fill="#E4DBC0"/>
</g>
<defs>
<clipPath id="clip0_2742_30349">
<rect width="270" height="270" fill="none"/>
</clipPath>
</defs>
</svg>
