<svg width="270" height="270" viewBox="0 0 270 270" fill="none" xmlns="http://www.w3.org/2000/svg">
<g clip-path="url(#clip0_2742_30353)">
<path d="M270 0H0V270H270V0Z" fill="#101010"/>
<path d="M135 255C201.274 255 255 201.274 255 135C255 68.7258 201.274 15 135 15C68.7258 15 15 68.7258 15 135C15 201.274 68.7258 255 135 255Z" fill="#00B496"/>
<path d="M123.068 181.413L87.7109 146.057C81.8542 140.2 81.8542 130.7 87.7109 124.843C93.5675 118.987 103.068 118.987 108.924 124.843L123.068 138.987L161.074 100.98C166.931 95.1232 176.431 95.1232 182.288 100.98C188.144 106.837 188.144 116.337 182.288 122.193L123.068 181.413Z" fill="#E1F000"/>
</g>
<defs>
<clipPath id="clip0_2742_30353">
<rect width="270" height="270" fill="white"/>
</clipPath>
</defs>
</svg>
